<svg 
 xmlns="http://www.w3.org/2000/svg"
 xmlns:xlink="http://www.w3.org/1999/xlink"
 width="16px" height="16px">
<path fill-rule="evenodd"  fill="rgb(233, 233, 233)"
 d="M2.055,-0.001 L13.945,-0.001 C15.074,-0.001 15.998,0.835 15.998,2.053 L15.998,13.946 C15.998,15.164 15.074,16.000 13.945,16.000 L2.055,16.000 C0.925,16.000 0.001,15.164 0.001,13.946 L0.001,2.053 C0.001,0.835 0.925,-0.001 2.055,-0.001 L2.055,-0.001 ZM11.654,1.777 C11.258,1.777 10.934,2.101 10.934,2.497 L10.934,4.221 C10.934,4.617 11.258,4.942 11.654,4.942 L13.462,4.942 C13.858,4.942 14.182,4.617 14.182,4.221 L14.182,2.497 C14.182,2.101 13.858,1.777 13.462,1.777 L11.654,1.777 L11.654,1.777 ZM14.190,6.765 L12.782,6.765 C12.915,7.201 12.987,7.662 12.987,8.139 C12.987,10.800 10.761,12.957 8.015,12.957 C5.269,12.957 3.043,10.800 3.043,8.139 C3.043,7.661 3.115,7.201 3.248,6.765 L1.779,6.765 L1.779,13.524 C1.779,13.875 2.065,14.161 2.415,14.161 L13.554,14.161 C13.904,14.161 14.190,13.875 14.190,13.524 L14.190,6.765 L14.190,6.765 ZM8.015,4.851 C6.241,4.851 4.802,6.245 4.802,7.965 C4.802,9.685 6.241,11.078 8.015,11.078 C9.789,11.078 11.228,9.685 11.228,7.965 C11.228,6.245 9.789,4.851 8.015,4.851 Z"/>
</svg>