<svg 
 xmlns="http://www.w3.org/2000/svg"
 xmlns:xlink="http://www.w3.org/1999/xlink"
 width="17px" height="17px">
<path fill-rule="evenodd"  fill="rgb(239, 239, 239)"
 d="M5.347,5.631 L1.425,1.708 C1.931,1.201 2.436,0.694 2.943,0.187 C3.178,-0.047 3.556,-0.052 3.792,0.180 L6.847,3.238 C7.081,3.472 7.081,3.856 6.844,4.092 L6.175,4.760 L5.552,5.383 C5.476,5.460 5.406,5.543 5.347,5.631 ZM8.573,12.022 C7.931,11.470 7.315,10.883 6.717,10.286 C6.121,9.686 5.536,9.072 4.982,8.427 C4.529,7.903 4.441,7.146 4.677,6.508 L0.652,2.481 C-0.285,3.445 -0.166,5.832 0.861,7.931 C1.302,8.839 1.873,9.658 2.464,10.437 C3.054,11.209 3.701,11.940 4.383,12.626 C5.066,13.312 5.793,13.962 6.568,14.551 C7.347,15.144 8.168,15.712 9.070,16.152 C11.171,17.177 13.560,17.290 14.523,16.352 L10.496,12.325 C9.858,12.562 9.099,12.474 8.573,12.022 ZM16.821,13.211 L13.766,10.155 C13.531,9.923 13.147,9.923 12.912,10.158 L12.910,10.158 L12.239,10.828 L11.620,11.450 C11.543,11.526 11.460,11.594 11.371,11.656 L15.293,15.579 C15.800,15.071 16.306,14.565 16.814,14.059 C17.051,13.825 17.056,13.446 16.821,13.211 Z"/>
</svg>