<svg xmlns="http://www.w3.org/2000/svg" width="127" height="79" viewBox="0 0 127 79">
  <defs>
    <style>
      .cls-1 {
        fill: #e20614;
      }

      .cls-1, .cls-2 {
        fill-rule: evenodd;
      }

      .cls-2 {
        fill: #e9e9e9;
      }
    </style>
  </defs>
  <path class="cls-1" d="M34.157,0H13.912L0,79H20.245c6.126,0,9.967-3.327,11.005-9.355L41.84,9.354C42.982,3.222,40.283,0,34.157,0ZM21.076,70.476H11.42L22.425,8.523h9.655ZM59.145,0l-0.018.03c-5.5.328-9.093,3.613-10.077,9.325L38.46,69.645C37.318,75.777,40.017,79,46.143,79H56.214c6.022,0,9.967-3.327,11.005-9.355L74.3,30.079H59.351l-1.558,8.94h4.984L57.044,70.476H48.22l11-61.953,0.02-.208H90.887L78.429,79H88.4L100.854,8.315H117.2A9.939,9.939,0,0,0,126.985.082L127,0H59.145Z"/>
  <path class="cls-2" d="M96.3,74.878l0.612-3.489,1.165,0.419L97.71,73.884l3.576,1.317L101.6,73.39l1.165,0.419-0.318,1.811,3.718,1.372,0.37-2.106,1.165,0.419-0.617,3.519ZM108.6,70.2l-0.248,1.413-3.667-.285,3.328,2.214-0.237,1.354-5.2-3.669L97,70.875l0.248-1.413,3.537,0.338L97.56,67.68,97.8,66.326l5.016,3.53Zm-5.646-4.248,0.261-1.487-4.785-1.743,0.248-1.413,10.79,3.946-0.248,1.414L104.409,64.9l-0.261,1.487,4.812,1.763-0.248,1.413L97.922,65.62l0.248-1.414Zm7.455-6.056-0.259,1.473-2.83-.745-0.23,1.311,2.735,1.289-0.248,1.413L99.022,59.348l0.357-2.032Zm-9.8-1.038,5.343,2.525,0.189-1.074Zm9.344-4.083a1.483,1.483,0,0,1,1.045,1.794l-0.261,1.487a1,1,0,0,1-1.51.855L99.71,55.433l0.248-1.413,9.625,3.527,0.23-1.31-9.625-3.527,0.248-1.413Zm-7.785-6.433-0.194,1.1,3.606,1.322,0.217-1.236a0.991,0.991,0,0,1,1.51-.856l3.494,1.272a1.481,1.481,0,0,1,1.045,1.794L111.6,53.092a1,1,0,0,1-1.51.856l-1.831-.674,0.248-1.413,1.972,0.729,0.207-1.177-3.747-1.377-0.217,1.236a1,1,0,0,1-1.51.856l-3.353-1.217a1.491,1.491,0,0,1-1.045-1.794l0.225-1.28a1,1,0,0,1,1.51-.856l1.846,0.677-0.248,1.413Zm0.814-4.637,9.654,3.532-0.248,1.413-9.654-3.532-0.235,1.34-1.137-.414,0.719-4.093,1.136,0.414Zm1.155-6.58-0.194,1.1,3.606,1.322,0.217-1.236a0.991,0.991,0,0,1,1.51-.856l3.494,1.272a1.481,1.481,0,0,1,1.045,1.794l-0.238,1.354a1,1,0,0,1-1.51.856l-1.831-.674,0.248-1.413,1.972,0.729,0.207-1.177-3.747-1.377L108.7,40.055a1,1,0,0,1-1.51.856l-3.353-1.217a1.488,1.488,0,0,1-1.044-1.793l0.224-1.281a1,1,0,0,1,1.51-.855l1.846,0.676-0.248,1.413ZM114.4,37.15l-3.536-1.294-7.555-.944,0.266-1.516,5.451,1.057-5.141-2.823,0.267-1.516,6.955,4.359,3.536,1.294ZM105.8,27.641l-0.194,1.1,3.606,1.322,0.217-1.237a0.991,0.991,0,0,1,1.51-.855l3.494,1.272a1.48,1.48,0,0,1,1.045,1.794L115.237,32.4a1,1,0,0,1-1.51.856l-1.831-.673,0.248-1.413,1.973,0.729,0.206-1.178-3.747-1.377-0.217,1.237a0.994,0.994,0,0,1-1.51.856L105.5,30.214a1.489,1.489,0,0,1-1.045-1.793l0.225-1.281a1,1,0,0,1,1.51-.855l1.845,0.676-0.248,1.413ZM106.611,23l9.655,3.532-0.248,1.414-9.655-3.532-0.235,1.34-1.136-.414,0.718-4.093,1.136,0.414Zm-0.792-2.371,0.612-3.489,1.166,0.419-0.365,2.076,3.577,1.317,0.318-1.81,1.165,0.419-0.318,1.811,3.718,1.372,0.37-2.1,1.165,0.419-0.618,3.519Zm11.958-2.709-8.656-1.989,8.463,3.093-0.225,1.281-10.791-3.945,0.359-2.047,8.9,2.139L107.3,12.227l0.366-2.09,10.791,3.946-0.235,1.34-8.462-3.093,8.268,4.2Z"/>
</svg>
