<svg 
 xmlns="http://www.w3.org/2000/svg"
 xmlns:xlink="http://www.w3.org/1999/xlink"
 width="21px" height="14px">
<path fill-rule="evenodd"  fill="rgb(239, 239, 239)"
 d="M-0.000,14.000 C-0.000,9.319 -0.000,4.680 -0.000,-0.000 C7.000,-0.000 13.984,-0.000 20.999,-0.000 C20.999,4.655 20.999,9.306 20.999,14.000 C14.014,14.000 7.030,14.000 -0.000,14.000 ZM19.767,12.726 C19.767,9.164 19.767,5.640 19.767,2.038 C17.910,3.719 16.112,5.347 14.278,7.008 C15.527,8.144 16.734,9.242 17.961,10.358 C17.679,10.692 17.425,10.995 17.151,11.319 C15.866,10.156 14.609,9.019 13.335,7.866 C12.369,8.733 11.440,9.567 10.508,10.404 C9.530,9.524 8.600,8.689 7.660,7.844 C6.359,9.022 5.102,10.160 3.825,11.317 C3.539,10.977 3.286,10.676 3.016,10.357 C4.262,9.221 5.478,8.112 6.717,6.981 C4.872,5.316 3.079,3.697 1.242,2.038 C1.242,5.663 1.242,9.180 1.242,12.726 C7.422,12.726 13.570,12.726 19.767,12.726 ZM10.508,8.708 C13.238,6.239 15.938,3.798 18.728,1.275 C13.197,1.275 7.813,1.275 2.288,1.275 C5.074,3.794 7.765,6.228 10.508,8.708 Z"/>
</svg>